<mxfile host="app.diagrams.net" modified="2023-05-12T16:54:12.655Z" agent="Mozilla/5.0 (Macintosh; Intel Mac OS X 10_15_7) AppleWebKit/537.36 (KHTML, like Gecko) Chrome/113.0.0.0 Safari/537.36" etag="AcYm23MmafZKD7rOso1K" version="21.1.6" type="device">
  <diagram name="Page-1" id="EvBSLCDh0zPFPnSC4Mjb">
    <mxGraphModel dx="2106" dy="1065" grid="0" gridSize="10" guides="1" tooltips="1" connect="1" arrows="1" fold="1" page="0" pageScale="1" pageWidth="1654" pageHeight="1169" math="0" shadow="0">
      <root>
        <mxCell id="0" />
        <mxCell id="1" parent="0" />
        <mxCell id="Bi70wsSebBeMWdj3BDgB-1" value="" style="rounded=0;whiteSpace=wrap;html=1;" vertex="1" parent="1">
          <mxGeometry x="37" y="164" width="358" height="413" as="geometry" />
        </mxCell>
        <mxCell id="Bi70wsSebBeMWdj3BDgB-2" style="edgeStyle=orthogonalEdgeStyle;rounded=0;orthogonalLoop=1;jettySize=auto;html=1;exitX=0;exitY=0.5;exitDx=0;exitDy=0;exitPerimeter=0;" edge="1" parent="1" source="Bi70wsSebBeMWdj3BDgB-3" target="Bi70wsSebBeMWdj3BDgB-28">
          <mxGeometry relative="1" as="geometry" />
        </mxCell>
        <mxCell id="Bi70wsSebBeMWdj3BDgB-3" value="Databases" style="shape=cylinder3;whiteSpace=wrap;html=1;boundedLbl=1;backgroundOutline=1;size=15;" vertex="1" parent="1">
          <mxGeometry x="186.5" y="487" width="67" height="78" as="geometry" />
        </mxCell>
        <mxCell id="Bi70wsSebBeMWdj3BDgB-4" value="Ecommerce Website" style="rounded=0;whiteSpace=wrap;html=1;" vertex="1" parent="1">
          <mxGeometry x="97" y="261" width="123" height="50" as="geometry" />
        </mxCell>
        <mxCell id="Bi70wsSebBeMWdj3BDgB-5" value="Real-time analytics" style="rounded=0;whiteSpace=wrap;html=1;" vertex="1" parent="1">
          <mxGeometry x="255" y="258" width="114" height="56" as="geometry" />
        </mxCell>
        <mxCell id="Bi70wsSebBeMWdj3BDgB-6" value="Inventory Management" style="rounded=0;whiteSpace=wrap;html=1;" vertex="1" parent="1">
          <mxGeometry x="160" y="357" width="120" height="60" as="geometry" />
        </mxCell>
        <mxCell id="Bi70wsSebBeMWdj3BDgB-7" value="Region 2" style="text;html=1;strokeColor=none;fillColor=none;align=center;verticalAlign=middle;whiteSpace=wrap;rounded=0;" vertex="1" parent="1">
          <mxGeometry x="71" y="180" width="60" height="30" as="geometry" />
        </mxCell>
        <mxCell id="Bi70wsSebBeMWdj3BDgB-8" value="" style="rounded=0;whiteSpace=wrap;html=1;" vertex="1" parent="1">
          <mxGeometry x="-531" y="166" width="358" height="413" as="geometry" />
        </mxCell>
        <mxCell id="Bi70wsSebBeMWdj3BDgB-9" style="edgeStyle=orthogonalEdgeStyle;rounded=0;orthogonalLoop=1;jettySize=auto;html=1;exitX=0.5;exitY=1;exitDx=0;exitDy=0;exitPerimeter=0;entryX=0.5;entryY=1;entryDx=0;entryDy=0;entryPerimeter=0;" edge="1" parent="1" source="Bi70wsSebBeMWdj3BDgB-12" target="Bi70wsSebBeMWdj3BDgB-28">
          <mxGeometry relative="1" as="geometry" />
        </mxCell>
        <mxCell id="Bi70wsSebBeMWdj3BDgB-10" value="Data backup every day in another region" style="edgeLabel;html=1;align=center;verticalAlign=middle;resizable=0;points=[];" vertex="1" connectable="0" parent="Bi70wsSebBeMWdj3BDgB-9">
          <mxGeometry x="-0.0328" y="-1" relative="1" as="geometry">
            <mxPoint as="offset" />
          </mxGeometry>
        </mxCell>
        <mxCell id="Bi70wsSebBeMWdj3BDgB-11" style="edgeStyle=orthogonalEdgeStyle;rounded=0;orthogonalLoop=1;jettySize=auto;html=1;exitX=0;exitY=0.5;exitDx=0;exitDy=0;exitPerimeter=0;" edge="1" parent="1" source="Bi70wsSebBeMWdj3BDgB-12" target="Bi70wsSebBeMWdj3BDgB-27">
          <mxGeometry relative="1" as="geometry" />
        </mxCell>
        <mxCell id="Bi70wsSebBeMWdj3BDgB-12" value="Databases" style="shape=cylinder3;whiteSpace=wrap;html=1;boundedLbl=1;backgroundOutline=1;size=15;" vertex="1" parent="1">
          <mxGeometry x="-381.5" y="489" width="67" height="78" as="geometry" />
        </mxCell>
        <mxCell id="Bi70wsSebBeMWdj3BDgB-13" value="Ecommerce Website" style="rounded=0;whiteSpace=wrap;html=1;" vertex="1" parent="1">
          <mxGeometry x="-471" y="263" width="123" height="50" as="geometry" />
        </mxCell>
        <mxCell id="Bi70wsSebBeMWdj3BDgB-14" value="Real-time analytics" style="rounded=0;whiteSpace=wrap;html=1;" vertex="1" parent="1">
          <mxGeometry x="-313" y="260" width="114" height="56" as="geometry" />
        </mxCell>
        <mxCell id="Bi70wsSebBeMWdj3BDgB-15" value="Inventory Management" style="rounded=0;whiteSpace=wrap;html=1;" vertex="1" parent="1">
          <mxGeometry x="-408" y="359" width="120" height="60" as="geometry" />
        </mxCell>
        <mxCell id="Bi70wsSebBeMWdj3BDgB-16" value="Region 1" style="text;html=1;strokeColor=none;fillColor=none;align=center;verticalAlign=middle;whiteSpace=wrap;rounded=0;" vertex="1" parent="1">
          <mxGeometry x="-497" y="182" width="60" height="30" as="geometry" />
        </mxCell>
        <mxCell id="Bi70wsSebBeMWdj3BDgB-17" style="edgeStyle=orthogonalEdgeStyle;rounded=0;orthogonalLoop=1;jettySize=auto;html=1;exitX=0;exitY=0.5;exitDx=0;exitDy=0;entryX=0.5;entryY=0;entryDx=0;entryDy=0;" edge="1" parent="1" source="Bi70wsSebBeMWdj3BDgB-22" target="Bi70wsSebBeMWdj3BDgB-8">
          <mxGeometry relative="1" as="geometry" />
        </mxCell>
        <mxCell id="Bi70wsSebBeMWdj3BDgB-18" value="Primary Region" style="edgeLabel;html=1;align=center;verticalAlign=middle;resizable=0;points=[];" vertex="1" connectable="0" parent="Bi70wsSebBeMWdj3BDgB-17">
          <mxGeometry x="-0.0074" y="1" relative="1" as="geometry">
            <mxPoint as="offset" />
          </mxGeometry>
        </mxCell>
        <mxCell id="Bi70wsSebBeMWdj3BDgB-19" style="edgeStyle=orthogonalEdgeStyle;rounded=0;orthogonalLoop=1;jettySize=auto;html=1;exitX=1;exitY=0.5;exitDx=0;exitDy=0;entryX=0.5;entryY=0;entryDx=0;entryDy=0;" edge="1" parent="1" source="Bi70wsSebBeMWdj3BDgB-22" target="Bi70wsSebBeMWdj3BDgB-1">
          <mxGeometry relative="1" as="geometry" />
        </mxCell>
        <mxCell id="Bi70wsSebBeMWdj3BDgB-20" value="Failover Region" style="edgeLabel;html=1;align=center;verticalAlign=middle;resizable=0;points=[];" vertex="1" connectable="0" parent="Bi70wsSebBeMWdj3BDgB-19">
          <mxGeometry x="-0.2414" relative="1" as="geometry">
            <mxPoint x="16" as="offset" />
          </mxGeometry>
        </mxCell>
        <mxCell id="Bi70wsSebBeMWdj3BDgB-22" value="" style="image;html=1;image=img/lib/clip_art/networking/Router_Icon_128x128.png" vertex="1" parent="1">
          <mxGeometry x="-118" y="88" width="80" height="80" as="geometry" />
        </mxCell>
        <mxCell id="Bi70wsSebBeMWdj3BDgB-23" value="" style="edgeStyle=orthogonalEdgeStyle;rounded=0;orthogonalLoop=1;jettySize=auto;html=1;" edge="1" parent="1" source="Bi70wsSebBeMWdj3BDgB-25" target="Bi70wsSebBeMWdj3BDgB-22">
          <mxGeometry relative="1" as="geometry" />
        </mxCell>
        <mxCell id="Bi70wsSebBeMWdj3BDgB-24" value="" style="edgeStyle=orthogonalEdgeStyle;rounded=0;orthogonalLoop=1;jettySize=auto;html=1;" edge="1" parent="1" source="Bi70wsSebBeMWdj3BDgB-25" target="Bi70wsSebBeMWdj3BDgB-22">
          <mxGeometry relative="1" as="geometry" />
        </mxCell>
        <mxCell id="Bi70wsSebBeMWdj3BDgB-25" value="User" style="shape=umlActor;verticalLabelPosition=bottom;verticalAlign=top;html=1;outlineConnect=0;" vertex="1" parent="1">
          <mxGeometry x="-93" y="-23" width="30" height="60" as="geometry" />
        </mxCell>
        <mxCell id="Bi70wsSebBeMWdj3BDgB-26" value="Manual switch to the failover region" style="shape=callout;whiteSpace=wrap;html=1;perimeter=calloutPerimeter;" vertex="1" parent="1">
          <mxGeometry x="-46" y="13" width="279" height="80" as="geometry" />
        </mxCell>
        <mxCell id="Bi70wsSebBeMWdj3BDgB-27" value="Backup" style="shape=cylinder3;whiteSpace=wrap;html=1;boundedLbl=1;backgroundOutline=1;size=15;" vertex="1" parent="1">
          <mxGeometry x="-493" y="489" width="67" height="78" as="geometry" />
        </mxCell>
        <mxCell id="Bi70wsSebBeMWdj3BDgB-28" value="Backup" style="shape=cylinder3;whiteSpace=wrap;html=1;boundedLbl=1;backgroundOutline=1;size=15;" vertex="1" parent="1">
          <mxGeometry x="76" y="487" width="67" height="78" as="geometry" />
        </mxCell>
        <mxCell id="Bi70wsSebBeMWdj3BDgB-32" value="The services must be started." style="shape=callout;whiteSpace=wrap;html=1;perimeter=calloutPerimeter;" vertex="1" parent="1">
          <mxGeometry x="191" y="180" width="279" height="80" as="geometry" />
        </mxCell>
        <mxCell id="Bi70wsSebBeMWdj3BDgB-33" value="The data must be fed to the database, as no running DB is present" style="shape=callout;whiteSpace=wrap;html=1;perimeter=calloutPerimeter;" vertex="1" parent="1">
          <mxGeometry x="116" y="426" width="279" height="80" as="geometry" />
        </mxCell>
      </root>
    </mxGraphModel>
  </diagram>
</mxfile>
